<svg xmlns="http://www.w3.org/2000/svg" version="1.1" xmlns:xlink="http://www.w3.org/1999/xlink" xmlns:svgjs="http://svgjs.com/svgjs" width="1440" height="250" preserveAspectRatio="none" viewBox="0 0 1440 250"><g mask="url(&quot;#SvgjsMask1000&quot;)" fill="none"><rect width="1440" height="250" x="0" y="0" fill="#0e2a47"></rect><path d="M46 250L296 0L507.5 0L257.5 250z" fill="url(#SvgjsLinearGradient1001)"></path><path d="M248.60000000000002 250L498.6 0L771.6 0L521.6 250z" fill="url(#SvgjsLinearGradient1001)"></path><path d="M495.20000000000005 250L745.2 0L1057.2 0L807.2 250z" fill="url(#SvgjsLinearGradient1001)"></path><path d="M751.8000000000001 250L1001.8000000000001 0L1244.8000000000002 0L994.8000000000001 250z" fill="url(#SvgjsLinearGradient1001)"></path><path d="M1428 250L1178 0L920 0L1170 250z" fill="url(#SvgjsLinearGradient1002)"></path><path d="M1163.4 250L913.4000000000001 0L632.9000000000001 0L882.9000000000001 250z" fill="url(#SvgjsLinearGradient1002)"></path><path d="M960.8 250L710.8 0L440.79999999999995 0L690.8 250z" fill="url(#SvgjsLinearGradient1002)"></path><path d="M709.1999999999999 250L459.19999999999993 0L276.19999999999993 0L526.1999999999999 250z" fill="url(#SvgjsLinearGradient1002)"></path><path d="M1293.629987755484 250L1440 103.62998775548417L1440 250z" fill="url(#SvgjsLinearGradient1001)"></path><path d="M0 250L146.37001224451583 250L 0 103.62998775548417z" fill="url(#SvgjsLinearGradient1002)"></path></g><defs><mask id="SvgjsMask1000"><rect width="1440" height="250" fill="#ffffff"></rect></mask><linearGradient x1="0%" y1="100%" x2="100%" y2="0%" id="SvgjsLinearGradient1001"><stop stop-color="rgba(79, 80, 83, 0.2)" offset="0"></stop><stop stop-opacity="0" stop-color="rgba(79, 80, 83, 0.2)" offset="0.66"></stop></linearGradient><linearGradient x1="100%" y1="100%" x2="0%" y2="0%" id="SvgjsLinearGradient1002"><stop stop-color="rgba(79, 80, 83, 0.2)" offset="0"></stop><stop stop-opacity="0" stop-color="rgba(79, 80, 83, 0.2)" offset="0.66"></stop></linearGradient></defs></svg>